<?xml version="1.0" encoding="UTF-8"?>
<svg version="1.1" xmlns="http://www.w3.org/2000/svg" width="540" height="360">
<path d="M0 0 C3.15459067 1.19309216 4.0191721 2.39958491 5.8527832 5.20727539 C6.44913574 6.11493652 7.04548828 7.02259766 7.65991211 7.95776367 C10.92883313 13.22011751 14.09163332 18.53707943 17.20825195 23.89086914 C18.62119353 26.30062294 20.03868534 28.70766913 21.45825195 31.11352539 C21.8071196 31.70484253 22.15598724 32.29615967 22.51542664 32.90539551 C26.40174471 39.47242808 30.48220978 45.90865386 34.5871582 52.34008789 C37.25174499 56.51517867 39.86870689 60.7183887 42.47167969 64.93212891 C43.57824953 66.72261927 44.68838048 68.5109142 45.80224609 70.296875 C48.33657999 74.36742271 50.82247427 78.44774123 53.17700195 82.62524414 C57.48680863 90.15288264 60.65389982 95.03009898 68.84887695 98.68774414 C78.63730187 103.32436647 84.64650515 112.51250451 88.33325195 122.39086914 C91.89212596 134.58054538 90.59126392 146.46966793 84.83325195 157.82836914 C78.76655089 167.95440694 70.35757242 174.23883584 59.2277832 178.09399414 C46.95111241 180.94000844 34.41249083 179.76073568 23.62231445 173.18774414 C13.58805534 166.3547634 6.95951555 157.43233708 3.8996582 145.53930664 C2.68167637 137.22689452 2.92347103 129.06269808 5.7668457 121.13696289 C7.8261783 115.17236745 7.27666579 110.31985729 6.44091797 104.1652832 C6.31426758 103.18414551 6.18761719 102.20300781 6.05712891 101.19213867 C5.78133992 99.06422895 5.50179508 96.9368034 5.21893501 94.80982208 C4.77066478 91.43896482 4.33210366 88.06696801 3.89598083 84.69451904 C3.12506784 78.74589504 2.34549042 72.79844396 1.56311035 66.85131836 C0.31289725 57.34702728 -0.93000233 47.84181329 -2.16194344 38.33513641 C-2.59350139 35.02151663 -3.03227658 31.70890681 -3.47154236 28.39630127 C-3.73800827 26.35058519 -4.00418256 24.3048311 -4.27001953 22.2590332 C-4.39315018 21.34547058 -4.51628082 20.43190796 -4.6431427 19.49066162 C-6.22439928 7.1722346 -6.22439928 7.1722346 -5.47924805 2.95336914 C-3.60554517 0.53724823 -3.12680684 -0.05881045 0 0 Z " fill="#050505" transform="translate(241.479248046875,130.046630859375)"/>
<path d="M0 0 C3.13108623 1.36518076 4.99383017 2.83217855 7.1875 5.4375 C7.7959375 6.15550781 8.404375 6.87351562 9.03125 7.61328125 C11.86116769 11.04399496 14.67160957 14.49026109 17.4765625 17.94140625 C20.29330867 21.35551191 23.17116081 24.71162822 26.0625 28.0625 C30.25229227 32.92155021 34.35039391 37.83217193 38.3046875 42.88671875 C39.82154555 44.77754872 41.41623456 46.53579277 43.0625 48.3125 C45 51 45 51 44.82421875 53.46484375 C43.88830363 56.34355899 43.01521098 57.2893552 40.75 59.25 C22.62641713 76.56159439 9.55854871 100.56966348 2.23828125 124.3671875 C1 127 1 127 -0.73071289 127.78735352 C-3.80849716 128.07576127 -5.69258112 127.21647772 -8.546875 126.03515625 C-9.68334473 125.57238281 -10.81981445 125.10960937 -11.99072266 124.6328125 C-13.24393142 124.10965354 -14.49702034 123.58620744 -15.75 123.0625 C-17.73538977 122.24562523 -19.72218728 121.43223657 -21.70901489 120.61886597 C-23.13802475 120.03342697 -24.56645577 119.44657344 -25.99435425 118.85842896 C-31.8866003 116.43649026 -37.80958075 114.09839949 -43.7421875 111.77734375 C-46.47099994 110.70490416 -49.19947256 109.63160431 -51.92785645 108.55807495 C-53.72144624 107.8544593 -55.51628618 107.15402186 -57.31237793 106.45681763 C-59.85018237 105.47043315 -62.38249962 104.47102505 -64.9140625 103.46875 C-65.67322968 103.17745712 -66.43239685 102.88616425 -67.21456909 102.58604431 C-71.28370752 100.95951123 -74.11469627 99.44238133 -77 96 C-68.79556856 77.42836435 -58.50093273 60.97240826 -46 45 C-45.24460937 44.01902344 -44.48921875 43.03804687 -43.7109375 42.02734375 C-40.27635912 37.63134864 -36.7186261 33.57392336 -32.703125 29.703125 C-30.92108452 27.92108452 -29.31100261 26.05196104 -27.6875 24.125 C-19.62576362 14.83260033 -9.70092567 7.4783793 0 0 Z " fill="#050505" transform="translate(137,91)"/>
<path d="M0 0 C2.47397022 0.41535889 4.74762701 0.93693318 7.15454102 1.60668945 C7.86963365 1.79607495 8.58472628 1.98546045 9.32148838 2.18058491 C11.55117165 2.77482439 13.77572891 3.38584612 16 4 C17.29986145 4.35276013 18.59981454 4.70518276 19.89987183 5.05722046 C23.78050296 6.11930411 27.65466526 7.20236029 31.52734375 8.29296875 C32.93694712 8.68852395 34.34658012 9.08397359 35.75624084 9.47932434 C38.66988221 10.29708425 41.58303266 11.1165645 44.49584961 11.93725586 C48.23386515 12.99021944 51.97332516 14.03795355 55.71317196 15.08439159 C58.60560463 15.89445471 61.49717229 16.70757032 64.38849068 17.52160072 C65.76895705 17.90978623 67.1497177 18.29692676 68.53077507 18.68300438 C70.44319994 19.21803571 72.35432696 19.75769966 74.26538086 20.29760742 C75.3518541 20.60309006 76.43832733 20.90857269 77.557724 21.22331238 C80 22 80 22 81 23 C80.93423164 24.98201923 80.79560223 26.96174177 80.625 28.9375 C80.53476563 30.01902344 80.44453125 31.10054687 80.3515625 32.21484375 C80.16375863 34.23686545 79.97115731 36.2586413 79.74609375 38.27685547 C77.8680234 55.42785658 78.77694723 72.35563226 81.61108398 89.33959961 C82.17728235 93.21270918 82.5677405 97.10966453 83 101 C51.32 101 19.64 101 -13 101 C-15.71298949 95.57402101 -15.34155121 90.98707483 -15.3125 85 C-15.30758545 83.80536133 -15.3026709 82.61072266 -15.29760742 81.37988281 C-14.98390053 56.74021766 -11.09200243 32.83958433 -4.3125 9.1875 C-4.11027832 8.48149658 -3.90805664 7.77549316 -3.69970703 7.0480957 C-2.80608457 4.08783178 -2.22018942 2.22018942 0 0 Z " fill="#050505" transform="translate(52,210)"/>
<path d="M0 0 C1.78659644 1.78659644 1.34253337 4.46197868 1.5 6.88671875 C1.58209717 8.12583008 1.66419434 9.36494141 1.7487793 10.64160156 C1.83287731 11.99021211 1.91661025 13.33884547 2 14.6875 C2.08690338 16.0504616 2.17389928 17.41341731 2.26098633 18.77636719 C2.7863368 27.09802226 3.27403822 35.42200182 3.6875 43.75 C3.73583984 44.66483154 3.78417969 45.57966309 3.83398438 46.5222168 C4.11880781 52.76238439 4.11880781 52.76238439 3 55 C1.27734375 55.5625 1.27734375 55.5625 -1.0625 56 C-1.97386719 56.17144531 -2.88523437 56.34289062 -3.82421875 56.51953125 C-6.0467585 56.85578265 -8.28117677 57.11802183 -10.51953125 57.32421875 C-28.62072447 59.02980231 -47.71026085 65.74172984 -62.34375 76.765625 C-64 78 -64 78 -66 78 C-66 78.66 -66 79.32 -66 80 C-68.44921875 81.98046875 -68.44921875 81.98046875 -71.6875 84.1875 C-72.74324219 84.92355469 -73.79898438 85.65960938 -74.88671875 86.41796875 C-78 88 -78 88 -80.49316406 87.85913086 C-83.66259753 86.77291773 -84.42186904 85.63321567 -86.22265625 82.8359375 C-86.81836426 81.9294043 -87.41407227 81.02287109 -88.02783203 80.08886719 C-88.67864746 79.06954102 -89.32946289 78.05021484 -90 77 C-90.73473896 75.88307075 -91.47163324 74.76755693 -92.21044922 73.65332031 C-94.63679461 69.98845007 -97.03812463 66.30756302 -99.4375 62.625 C-100.65838089 60.75367969 -101.87974541 58.88268064 -103.10220337 57.01239014 C-103.90144428 55.78786192 -104.69865279 54.56200459 -105.4937439 53.33477783 C-107.41450346 50.37860296 -109.36682996 47.45885851 -111.41455078 44.58886719 C-112.52612549 43.00960449 -112.52612549 43.00960449 -113.66015625 41.3984375 C-114.32797119 40.47466309 -114.99578613 39.55088867 -115.68383789 38.59912109 C-117 36 -117 36 -116.90991211 33.30078125 C-115.41108059 29.51087294 -111.98097386 28.32500165 -108.5 26.625 C-107.34213989 26.04202148 -107.34213989 26.04202148 -106.16088867 25.44726562 C-103.78636275 24.27003042 -101.3979178 23.12872805 -99 22 C-98.34467285 21.68772461 -97.6893457 21.37544922 -97.01416016 21.05371094 C-68.0268905 7.50259767 -32.17469674 -1.96801132 0 0 Z " fill="#060606" transform="translate(275,45)"/>
<path d="M0 0 C34.25732752 0.43885027 79.58093579 18.10672579 104.69140625 41.55859375 C105.17222656 42.09484375 105.65304687 42.63109375 106.1484375 43.18359375 C100.64650365 54.6328561 92.50706681 64.88659139 85.1484375 75.18359375 C81.62674339 74.59832653 78.7777679 73.67807049 75.59375 72.07421875 C74.73990723 71.65164795 73.88606445 71.22907715 73.00634766 70.79370117 C72.1044873 70.34486572 71.20262695 69.89603027 70.2734375 69.43359375 C61.71126939 65.28874265 53.3683501 61.63166169 44.1484375 59.18359375 C42.94840088 58.86116699 42.94840088 58.86116699 41.72412109 58.53222656 C26.4088358 54.54040095 11.2512619 53.12346109 -4.53271484 52.40136719 C-6.8515625 52.18359375 -6.8515625 52.18359375 -7.8515625 51.18359375 C-7.8931046 49.53689528 -7.86158967 47.88828712 -7.80078125 46.2421875 C-7.76275391 45.19409912 -7.72472656 44.14601074 -7.68554688 43.06616211 C-7.63720703 41.92928955 -7.58886719 40.79241699 -7.5390625 39.62109375 C-7.49201172 38.46552979 -7.44496094 37.30996582 -7.39648438 36.11938477 C-7.03624873 27.94014554 -6.51677916 19.7810433 -5.8515625 11.62109375 C-5.76865967 10.58718506 -5.68575684 9.55327637 -5.6003418 8.48803711 C-5.51824463 7.54065674 -5.43614746 6.59327637 -5.3515625 5.6171875 C-5.279375 4.78243896 -5.2071875 3.94769043 -5.1328125 3.08764648 C-4.6092687 -0.45672689 -3.82832283 0.18248598 0 0 Z " fill="#070707" transform="translate(301.8515625,46.81640625)"/>
<path d="M0 0 C4.38579445 0.43753769 6.78349479 3.36930353 9.6875 6.375 C10.21714355 6.91519775 10.74678711 7.45539551 11.29248047 8.01196289 C16.19772722 13.08081658 20.65593686 18.44453737 25 24 C26.16595703 25.423125 26.16595703 25.423125 27.35546875 26.875 C40.76368171 43.58730359 51.09270612 62.81974558 59 82.6875 C59.30333252 83.44240723 59.60666504 84.19731445 59.91918945 84.97509766 C61.38040213 88.77691283 62.39248061 91.85442353 62 96 C44.46989922 104.15278584 44.46989922 104.15278584 40.90722656 103.7824707 C37.41946184 102.35155852 36.31412725 98.42695983 34.75 95.1875 C25.99605104 77.9066965 14.32535305 62.95897935 1 49 C0.18789063 48.13503906 -0.62421875 47.27007812 -1.4609375 46.37890625 C-7.77703072 39.82774807 -14.69425271 34.38197684 -22 29 C-21.62645251 23.93843155 -18.90266075 21.31866291 -15.5 17.875 C-14.40890238 16.73551485 -13.32039451 15.59354478 -12.234375 14.44921875 C-11.69103516 13.8773584 -11.14769531 13.30549805 -10.58789062 12.71630859 C-6.83922685 8.66447797 -3.4298185 4.32191775 0 0 Z " fill="#080808" transform="translate(423,104)"/>
<path d="M0 0 C0.65362754 3.91540608 1.2964178 7.83252191 1.9375 11.75 C2.11990234 12.84183594 2.30230469 13.93367187 2.49023438 15.05859375 C4.21618283 25.66533151 5.19807277 36.18922548 5.1875 46.9375 C5.1862915 48.266604 5.1862915 48.266604 5.18505859 49.62255859 C4.85697265 86.14302735 4.85697265 86.14302735 0 91 C-1.99609375 91.16796875 -1.99609375 91.16796875 -4.4375 91.1875 C-5.24058594 91.20167969 -6.04367187 91.21585937 -6.87109375 91.23046875 C-9 91 -9 91 -11 89 C-11.1953125 87.01074219 -11.1953125 87.01074219 -11.125 84.546875 C-11.10783936 83.62914307 -11.09067871 82.71141113 -11.07299805 81.76586914 C-11.04890869 80.77063232 -11.02481934 79.77539551 -11 78.75 C-10.760178 55.30053407 -13.30410559 31.51806166 -21.49609375 9.390625 C-22 7 -22 7 -21.5546875 4.81640625 C-19.16671339 2.0264365 -16.12675549 1.51042958 -12.6875 0.6875 C-12.02298828 0.50638672 -11.35847656 0.32527344 -10.67382812 0.13867188 C-6.71264256 -0.86827638 -3.93517173 -0.93626006 0 0 Z " fill="#0E0E0E" transform="translate(492,220)"/>
<path d="M0 0 C2.375 0.8125 2.375 0.8125 3.375 2.8125 C2.42625 3.18375 1.4775 3.555 0.5 3.9375 C-2.88053808 5.55245905 -2.88053808 5.55245905 -4 9 C-4.20625 9.928125 -4.4125 10.85625 -4.625 11.8125 C-4.955 11.8125 -5.285 11.8125 -5.625 11.8125 C-5.70631463 10.37594146 -5.76433559 8.9380517 -5.8125 7.5 C-5.84730469 6.69949219 -5.88210937 5.89898437 -5.91796875 5.07421875 C-5.625 2.8125 -5.625 2.8125 -4.27734375 1.0078125 C-2.625 -0.1875 -2.625 -0.1875 0 0 Z " fill="#3C3C3C" transform="translate(241.625,130.1875)"/>
<path d="M0 0 C2.475 0.495 2.475 0.495 5 1 C4.67 1.99 4.34 2.98 4 4 C5.32 4.66 6.64 5.32 8 6 C6.35 6.33 4.7 6.66 3 7 C0 2.25 0 2.25 0 0 Z " fill="#2F2F2F" transform="translate(460,201)"/>
<path d="M0 0 C0 3.58912412 -0.66436554 4.10857029 -3 6.6875 C-3.556875 7.31011719 -4.11375 7.93273437 -4.6875 8.57421875 C-5.120625 9.04472656 -5.55375 9.51523438 -6 10 C-6.66 9.67 -7.32 9.34 -8 9 C-5.36 6.03 -2.72 3.06 0 0 Z " fill="#353535" transform="translate(413,116)"/>
<path d="M0 0 C0.66 0.99 1.32 1.98 2 3 C1.67 3.66 1.34 4.32 1 5 C0.34 5 -0.32 5 -1 5 C-0.67 5.99 -0.34 6.98 0 8 C-0.99 7.67 -1.98 7.34 -3 7 C-2.25 2.25 -2.25 2.25 0 0 Z " fill="#414141" transform="translate(404,126)"/>
<path d="M0 0 C0.33 1.32 0.66 2.64 1 4 C0.34 4 -0.32 4 -1 4 C-1 4.66 -1 5.32 -1 6 C-1.66 6 -2.32 6 -3 6 C-3.33 6.66 -3.66 7.32 -4 8 C-4 4 -4 4 -2 1.75 C-1.01 0.88375 -1.01 0.88375 0 0 Z " fill="#474747" transform="translate(112,112)"/>
<path d="M0 0 C1.98 0.66 3.96 1.32 6 2 C5.67 3.65 5.34 5.3 5 7 C1.125 2.25 1.125 2.25 0 0 Z " fill="#3C3C3C" transform="translate(175,106)"/>
</svg>
