<?xml version="1.0" encoding="UTF-8"?>
<svg version="1.1" xmlns="http://www.w3.org/2000/svg" viewBox="0 0 720 792">
<path d="M0 0 C134.64 0 269.28 0 408 0 C403.39660451 48.33565263 403.39660451 48.33565263 400.91690755 71.74645805 C400.5301023 75.40366943 400.14602559 79.06116774 399.76158142 82.71862793 C399.00384314 89.92400332 398.24408651 97.12916425 397.48347062 104.33423638 C395.80625649 120.22203557 394.13241656 136.11019042 392.4597311 151.99846697 C392.15845362 154.85992116 391.85706614 157.72136376 391.55567169 160.58280563 C388.35625586 190.9636026 385.19657058 221.3484194 382.0531314 251.7350558 C381.13712065 260.58882602 380.21953519 269.44243191 379.30088806 278.29592896 C379.17145307 279.54341152 379.04201809 280.79089408 378.90866083 282.07617915 C378.38679574 287.10550766 377.86487274 292.13483015 377.3427633 297.16413331 C375.79129736 312.10910247 374.24492329 327.05457723 372.70682865 342.00092864 C371.73266553 351.46270386 370.75216684 360.92380958 369.76689094 370.38443398 C369.19311599 375.896009 368.62228869 381.40784978 368.05909538 386.92051697 C367.53885788 392.01231212 367.01055444 397.10320536 366.47602904 402.19351983 C366.283758 404.0381589 366.0944081 405.88310538 365.90833509 407.72837996 C363.84857299 428.11979324 360.10099384 445.90395838 344 460 C328.86337403 471.6377074 313.36992781 472.59437718 294.97851562 472.51757812 C292.78244057 472.52300778 290.58636916 472.53013515 288.39030457 472.53881836 C282.46260472 472.55695417 276.53518535 472.55002451 270.607481 472.53730202 C264.38272257 472.52712369 258.15798699 472.53658106 251.93322754 472.54284668 C240.81496513 472.55057326 229.69682597 472.53819921 218.5785833 472.51780933 C208.52481964 472.49994154 198.4712408 472.50304666 188.41748047 472.52148438 C176.70504377 472.54287785 164.99272248 472.55082466 153.28026915 472.53903532 C147.09393094 472.53282249 140.90771966 472.5319037 134.72138977 472.54518127 C128.90337362 472.55679774 123.085704 472.54860847 117.26772499 472.52560425 C115.14179876 472.52034803 113.01584301 472.52177749 110.88992882 472.53065491 C90.55640993 472.60768849 73.84195499 469.41207913 58.578125 454.82421875 C47.15501458 442.31072052 43.85322091 427.58659953 42.27099609 411.08544922 C42.13282812 409.7428879 41.99352994 408.40044251 41.85321808 407.05810356 C41.4750972 403.4104619 41.11255632 399.76142169 40.75267935 396.11194134 C40.35967274 392.15644193 39.95155176 388.20249835 39.54519653 384.24835205 C38.84262325 377.39309789 38.14889598 370.53699689 37.46118164 363.68023682 C36.36418463 352.74495124 35.24900741 341.81155832 34.13085938 330.87841797 C33.74607515 327.11429647 33.36139319 323.35016452 32.97674561 319.58602905 C32.88058134 318.64511449 32.78441707 317.70419993 32.68533874 316.7347728 C31.99378342 309.96617118 31.30467937 303.19732249 30.61651611 296.42837524 C27.85203165 269.24462851 25.04177057 242.06590775 22.1953125 214.890625 C22.09657947 213.9479554 21.99784644 213.00528581 21.8961215 212.03405046 C20.71724127 200.77993893 19.53650236 189.52602283 18.35504687 178.27218139 C17.34513422 168.65149303 16.33726456 159.03059095 15.32958984 149.40966797 C15.1520697 147.71494458 14.97454705 146.02022145 14.79702187 144.32549858 C14.09917058 137.6634706 13.40135988 131.00143837 12.70363235 124.33939743 C12.18792216 119.41538376 11.67211591 114.49138017 11.15625 109.56738281 C11.07069815 108.75073473 10.98514631 107.93408665 10.89700198 107.09269166 C9.74541482 96.1009722 8.59139687 85.10951026 7.43543959 74.11824954 C6.58688398 66.04964876 5.73933017 57.98094314 4.89242601 49.91216886 C4.28302723 44.1069665 3.67228865 38.30190715 3.06055737 32.49695015 C2.684171 28.92214979 2.30907534 25.34721489 1.93434906 21.77224016 C1.75949507 20.10665458 1.58409927 18.44112577 1.40813446 16.77565718 C1.16775583 14.49982651 0.9292802 12.22380427 0.69128418 9.94772339 C0.55703789 8.67129408 0.4227916 7.39486477 0.28447723 6.07975578 C0 3 0 3 0 0 Z M82 79 C77.57960245 87.84079511 81.91031117 104.3147366 82.83251953 113.95678711 C83.03015311 116.0664076 83.22729836 118.17607389 83.42399597 120.28578186 C83.95859043 126.00434395 84.50009763 131.72223241 85.04292154 137.44001842 C85.61654914 143.49428011 86.18397501 149.54912328 86.75216675 155.60389709 C87.7119409 165.82213841 88.67582893 176.03998469 89.64257812 186.25756836 C90.62329124 196.62283119 91.60108548 206.98836251 92.57519531 217.35424805 C92.69390055 218.61740479 92.81260579 219.88056153 92.93490815 221.18199575 C93.17369276 223.72309606 93.41247066 226.26419699 93.65124178 228.80529857 C95.81883535 251.8709157 98.00076921 274.93513334 100.19672012 297.99806786 C101.22420026 308.7944699 102.24519398 319.59138429 103.24535429 330.39035386 C103.80245939 336.40480581 104.36623977 342.41859474 104.93711793 348.43175536 C105.24180028 351.64461611 105.54126459 354.85781197 105.8326149 358.07191277 C106.13654132 361.42089578 106.45468605 364.76820946 106.77685547 368.11547852 C106.85803997 369.05297754 106.93922447 369.99047657 107.02286911 370.95638466 C107.51671925 375.90500367 108.31928453 379.68380314 111 384 C113.46336125 385.93549813 115.23435451 386.03037929 118.375 386.4375 C123.11973172 385.86485997 124.86582008 384.58191991 128 381 C129.22190465 374.8620094 128.89027295 369.21354633 128.27400208 363.0194397 C128.18375706 362.04176773 128.09351204 361.06409577 128.00053233 360.05679739 C127.69714882 356.79305685 127.38140474 353.53063382 127.06567383 350.26806641 C126.84496825 347.92133969 126.62502738 345.57454094 126.40579224 343.22767639 C125.80789495 336.85081259 125.19927272 330.47501247 124.58875108 324.09934664 C124.01207148 318.0685567 123.44509904 312.03685083 122.87721118 306.00522797 C121.74778778 294.01227542 120.61058634 282.02007366 119.46850586 270.02832031 C118.36937529 258.48736291 117.27383561 246.94607445 116.18334961 235.40429688 C116.1166476 234.69833168 116.04994559 233.99236648 115.98122231 233.2650084 C115.64602662 229.71710865 115.31090037 226.16920235 114.97580302 222.62129331 C113.31609198 205.04963747 111.6540752 187.47820039 109.98554993 169.90737915 C109.80856122 168.04326738 109.80856122 168.04326738 109.62799698 166.14149678 C109.05540445 160.11328301 108.48165968 154.08518239 107.90568256 148.05729103 C106.96257598 138.18061111 106.02282351 128.30384026 105.12274796 118.42313111 C104.76341187 114.48075464 104.39961257 110.53879556 104.03554094 106.59685397 C103.87039133 104.79328762 103.70761987 102.98950161 103.54746211 101.18548512 C103.33039059 98.74061722 103.10529274 96.29660956 102.87846375 93.85263062 C102.81864189 93.15261169 102.75882004 92.45259277 102.6971854 91.73136115 C101.95986157 83.23050658 101.95986157 83.23050658 97.25 76.5625 C90.89575047 73.50757234 87.42383142 74.71138911 82 79 Z M196 78 C193.81274287 81.2808857 193.74865452 82.22210355 193.74273109 86.02477074 C193.7362822 87.06919567 193.72983331 88.11362059 193.723189 89.18969476 C193.7262862 90.34093918 193.7293834 91.4921836 193.73257446 92.67831421 C193.72804335 93.89833181 193.72351224 95.11834941 193.71884382 96.37533724 C193.70834887 99.76804673 193.70687816 103.16054476 193.70923257 106.55325556 C193.7096399 110.20978989 193.69860965 113.86629233 193.68911743 117.52281189 C193.67248822 124.6889812 193.66700702 131.85511761 193.66589268 139.02130459 C193.66494311 144.84499422 193.66083743 150.66867297 193.65449142 156.49235916 C193.63687381 172.99523291 193.62765337 189.49808063 193.62915237 206.00096385 C193.62923228 206.8910657 193.6293122 207.78116755 193.62939453 208.69824219 C193.62947629 209.58942795 193.62955805 210.48061371 193.62964229 211.3988051 C193.63045535 225.8447347 193.61131406 240.29056008 193.5831178 254.73645954 C193.55440985 269.56121879 193.54057635 284.38592717 193.54230535 299.21071494 C193.54296997 307.53700957 193.53744609 315.86319493 193.51594925 324.18946457 C193.49776489 331.27829167 193.49336741 338.36695999 193.5069681 345.45580028 C193.51351173 349.07367779 193.5135652 352.69125043 193.4962616 356.3090992 C193.47770694 360.22878128 193.49004906 364.14801493 193.50552368 368.06771851 C193.49523656 369.21450148 193.48494943 370.36128445 193.47435057 371.54281843 C193.49930855 377.66702976 193.49930855 377.66702976 195.89443016 383.19498634 C199.32276769 386.13395134 202.59786427 386.28299444 207 386 C210.670261 384.43818681 211.7727373 383.34089404 214 380 C214.30384042 377.64499495 214.30384042 377.64499495 214.26006222 374.97522926 C214.26712781 373.93080433 214.2741934 372.88637941 214.2814731 371.81030524 C214.27785047 370.08343861 214.27785047 370.08343861 214.27415466 368.32168579 C214.27939134 367.10166819 214.28462802 365.88165059 214.29002339 364.62466276 C214.30245938 361.2319572 214.30586615 357.83945862 214.30542648 354.44674444 C214.30707217 350.7902063 214.32013397 347.13370613 214.33161926 343.47718811 C214.35448694 335.47935179 214.36239164 327.48154197 214.36744571 319.48367739 C214.37070042 314.49166117 214.37722149 309.49965269 214.3844471 304.50764084 C214.40401466 290.6912263 214.42041818 276.87481895 214.42332363 263.05838966 C214.4235112 262.17393707 214.42369877 261.28948448 214.42389202 260.3782303 C214.42425828 258.58516558 214.42462198 256.79210086 214.42498314 254.99903615 C214.42516595 254.1089343 214.42534876 253.21883245 214.42553711 252.30175781 C214.42571766 251.41057205 214.42589821 250.51938629 214.42608423 249.6011949 C214.42962717 235.15524321 214.45665628 220.70944048 214.494035 206.26354046 C214.53208768 191.43878065 214.55148088 176.61409481 214.55178314 161.78928506 C214.55236837 153.46296073 214.56090235 145.13681411 214.58978081 136.81053543 C214.61425405 129.72168628 214.62160516 122.63307966 214.60653328 115.54419972 C214.59934777 111.9262559 214.60029135 108.30879135 214.62294388 104.6909008 C214.64725172 100.77114653 214.63294402 96.85208148 214.61473083 92.93228149 C214.6279308 91.78549852 214.64113077 90.63871555 214.65473074 89.45718157 C214.63735105 83.17230293 214.63735105 83.17230293 211.58657932 77.81673241 C206.07040501 73.94234412 201.51032025 73.86725981 196 78 Z M308 79 C306.12805967 82.74560628 305.60592939 86.19769894 305.22608948 90.34375 C305.10463279 91.62853115 304.9831761 92.9133123 304.8580389 94.23702621 C304.73147661 95.65800538 304.60505516 97.07899709 304.47875977 98.5 C304.33913203 100.00773227 304.19882962 101.51540218 304.05790806 103.02301407 C303.67438186 107.14658459 303.300287 111.27096446 302.9276967 115.39553547 C302.52830791 119.797719 302.11997798 124.19907333 301.71261597 128.6005249 C300.92556602 137.11883706 300.14622553 145.6378367 299.36958766 154.15710378 C298.38590156 164.94415198 297.39354008 175.73039865 296.40063477 186.51660156 C296.12892764 189.4686219 295.85722747 192.42064287 295.58553129 195.37266421 C295.40435005 197.34117929 295.22315333 199.30969294 295.04194111 201.27820516 C294.49693473 207.19947999 293.95287016 213.12084052 293.4094941 219.04226518 C291.20651334 243.0462101 288.96677694 267.04617971 286.66520143 291.04087257 C286.3306877 294.53071822 285.99731765 298.02067304 285.66386414 301.51062012 C284.56969929 312.95716795 283.4723265 324.40335379 282.35783386 335.84794235 C281.91611081 340.40235023 281.48137287 344.95740447 281.04861832 349.51267242 C280.85039522 351.58267599 280.6491093 353.65238908 280.44442368 355.72176361 C280.16909436 358.50749755 279.90442168 361.29404848 279.64233398 364.08105469 C279.56097985 364.87650696 279.47962572 365.67195923 279.39580631 366.49151611 C278.87380382 372.22016609 278.35443664 378.43292115 281.5625 383.4375 C284.94618494 385.60652881 287.99231598 386.22309175 292 386 C294.97160035 384.64339984 296.70283441 383.29716559 299 381 C302.16391014 368.59969154 302.32757939 354.97714948 303.50610352 342.28076172 C303.75074722 339.67600445 303.99573109 337.07127911 304.24102783 334.46658325 C304.76680784 328.87782713 305.28978107 323.28881423 305.81079292 317.69961166 C306.56518576 309.60681415 307.32387005 301.51442335 308.08355331 293.42212094 C309.31777033 280.27372204 310.54852572 267.12500152 311.77709961 253.97607422 C312.96726756 241.23826658 314.15914236 228.50062052 315.35327148 215.76318359 C315.42685552 214.97827761 315.50043956 214.19337163 315.57625342 213.38468061 C315.87210605 210.22896104 316.16797238 207.07324274 316.46385649 203.91752612 C318.73311604 179.71499123 321.0005271 155.51228341 323.26344299 131.30915451 C323.50002541 128.77881963 323.73665171 126.24848885 323.97332573 123.71816254 C324.29706908 120.25669223 324.62062011 116.795204 324.94410706 113.33370972 C325.03710368 112.33962628 325.13010031 111.34554285 325.22591501 110.32133567 C325.48498542 107.54765294 325.74260669 104.7738388 326 102 C326.09201246 101.01815806 326.18402492 100.03631611 326.27882564 99.02472138 C326.41323926 97.57516797 326.41323926 97.57516797 326.55036831 96.09633064 C326.63075263 95.23421978 326.71113696 94.37210892 326.79395717 93.48387349 C327.50138009 86.11270084 327.50138009 86.11270084 325.75 79.0625 C323.06811983 75.90171266 321.21302867 75.15822113 317.125 74.625 C313.09893434 75.10812788 311.08842823 76.40291262 308 79 Z " fill="#020202" transform="translate(156,246)"/>
<path d="M0 0 C11.3371301 8.20170506 20.42318945 20.54966138 23.51953125 34.30859375 C23.8125 36.25 23.8125 36.25 24 39 C24.76948975 39.0424585 25.53897949 39.08491699 26.33178711 39.12866211 C34.88436917 39.6830258 43.15629254 40.91456106 51.5625 42.5625 C52.22719299 42.6924939 52.89188599 42.82248779 53.57672119 42.9564209 C95.56114682 51.24241082 145.54730406 66.18190808 172.375 102.1875 C180.3777872 114.4270569 182 124.02905143 182 139 C36.8 139 -108.4 139 -258 139 C-258 117.45994919 -251.85664447 105.21357382 -237.3125 89.9375 C-203.23721297 56.74391751 -145.82167879 42.42618719 -100 39 C-99.929021 38.38648682 -99.85804199 37.77297363 -99.78491211 37.14086914 C-98.00394536 23.36775441 -89.09396576 10.7675299 -78.6640625 2.046875 C-54.78506571 -15.72713555 -24.76115224 -15.70140773 0 0 Z M-69.94921875 24.0859375 C-73.13694288 28.11497381 -74.2984876 30.89546281 -76 36 C-50.92 36 -25.84 36 0 36 C-3.41196461 25.76410618 -9.58307002 19.21511474 -19 14 C-36.92497864 5.59688935 -56.47766729 9.66948764 -69.94921875 24.0859375 Z " fill="#030303" transform="translate(398,87)"/>
<path d="M0 0 C0.66 0.33 1.32 0.66 2 1 C-2.95 5.95 -7.9 10.9 -13 16 C-13 10.79628205 -8.49504984 7.5790344 -5 4 C-3.37707762 2.6137538 -1.7331451 1.24569804 0 0 Z " fill="#3A3C3C" transform="translate(322,87)"/>
</svg>
